<svg xmlns="http://www.w3.org/2000/svg" xmlns:xlink="http://www.w3.org/1999/xlink" viewBox="0 0 787.18 765.74"><defs><style>.cls-1,.cls-3{fill:none;}.cls-2{clip-path:url(#clip-path);}.cls-3{stroke:#d93f3f;stroke-miterlimit:10;stroke-width:16px;}</style><clipPath id="clip-path" transform="translate(2.24 234.2)"><rect class="cls-1" width="425.5" height="315"/></clipPath></defs><g id="Layer_2" data-name="Layer 2"><g id="Layer_2-2" data-name="Layer 2"><g class="cls-2"><path class="cls-3" d="M246.37,155.16A159.74,159.74,0,0,1,382.65-25,165.15,165.15,0,0,1,568.94,115.87,170.77,170.77,0,0,1,423.27,308.48,176.55,176.55,0,0,1,224.13,157.87C210.27,58,280-34.17,379.84-48,483.09-62.35,578.39,9.73,592.72,113,607.53,219.72,533,318.25,426.26,333.07,315.9,348.38,214,271.33,198.71,161,182.88,46.86,262.54-58.47,376.64-74.3c118-16.37,226.88,66,243.25,184,16.92,122-68.23,234.57-190.21,251.5-126.1,17.5-242.52-70.55-260-196.66C151.57,34.12,242.6-86.24,373-104.34c134.8-18.7,259.24,75.42,278,210.22,19.34,139.38-78,268-217.35,287.38-144.1,20-277.12-80.61-297.12-224.71C115.8,19.56,219.82-118,368.81-138.65,522.84-160,665-52.48,686.42,101.56c22.1,159.26-89.1,306.28-248.36,328.38C273.4,452.79,121.39,337.83,98.55,173.17,74.92,2.92,193.78-154.24,364-177.86,540.05-202.29,702.54-79.4,727,96.62c25.25,182-101.81,350-283.79,375.24C255,498,81.32,366.6,55.21,178.44,28.22-16.09,164-195.68,358.57-222.67,559.7-250.58,745.38-110.15,773.29,91,802.14,298.93,657,490.9,449,519.76,234,549.59,35.52,399.48,5.69,184.48" transform="translate(2.24 234.2)"/></g></g></g></svg>